<svg id="圖層_1" data-name="圖層 1" xmlns="http://www.w3.org/2000/svg" viewBox="0 0 50 42.3"><defs><style>.cls-1{fill:#007ee6;}.cls-2{fill:#4d4d4d;}</style></defs><title>twdex</title><path class="cls-1" d="M21.14,21.93v2.4H3.42v8.05H20.13v2.4H3.42v8.83H21.84V46H0V21.93Z" transform="translate(0 -3.7)"/><path class="cls-1" d="M28.82,21.93l8.07,9.37L45,21.93h4.22L38.93,33.49,50,46H45.78L36.89,35.68,28,46H23.81l11-12.51L24.6,21.93Z" transform="translate(0 -3.7)"/><path class="cls-2" d="M13.31,3.7V5.32H7.58V20H5.73V5.32H0V3.7Z" transform="translate(0 -3.7)"/><path class="cls-2" d="M15.92,3.7l3.57,13.64h.09L23.29,3.7h2L29,17.34h.09L32.67,3.7h2.09L30.09,20H28L24.34,6.41h-.07L20.56,20H18.49L13.82,3.7Z" transform="translate(0 -3.7)"/><path class="cls-2" d="M42.35,3.7a7.34,7.34,0,0,1,5.83,2.23A8.71,8.71,0,0,1,50,11.83a8.39,8.39,0,0,1-2,5.89A7.58,7.58,0,0,1,42.17,20H36.53V3.7Zm-4,14.64h3.46a6.31,6.31,0,0,0,4.78-1.69,6.91,6.91,0,0,0,1.53-4.82A7.15,7.15,0,0,0,46.75,7a6,6,0,0,0-4.69-1.66H38.39Z" transform="translate(0 -3.7)"/></svg>